<svg id="Layer_3" enable-background="new 0 0 64 64" height="512" viewBox="0 0 64 64" width="512" xmlns="http://www.w3.org/2000/svg"><g><circle cx="13" cy="13" fill="#88929f" r="11"/><circle cx="13" cy="13" fill="#c1c8d1" r="7"/><circle cx="51" cy="13" fill="#88929f" r="11"/><circle cx="51" cy="13" fill="#c1c8d1" r="7"/><circle cx="51" cy="51" fill="#88929f" r="11"/><circle cx="51" cy="51" fill="#c1c8d1" r="7"/><circle cx="13" cy="51" fill="#88929f" r="11"/><circle cx="13" cy="51" fill="#c1c8d1" r="7"/><path d="m50.189 45.827-5.629-6.754c-1.654-1.986-2.56-4.488-2.56-7.073 0-2.585.906-5.087 2.561-7.073l5.629-6.754c1.025-1.231.943-3.04-.19-4.173-1.133-1.133-2.942-1.215-4.173-.189l-6.754 5.629c-1.986 1.654-4.488 2.56-7.073 2.56-2.585 0-5.087-.906-7.073-2.561l-6.754-5.629c-1.231-1.025-3.04-.943-4.173.19-1.133 1.133-1.215 2.942-.189 4.173l5.629 6.754c1.654 1.986 2.56 4.488 2.56 7.073 0 2.585-.906 5.087-2.561 7.073l-5.629 6.754c-1.025 1.231-.943 3.04.19 4.173 1.133 1.133 2.942 1.215 4.173.189l6.754-5.629c1.986-1.654 4.488-2.56 7.073-2.56 2.585 0 5.087.906 7.073 2.561l6.754 5.629c1.231 1.025 3.04.943 4.173-.19 1.133-1.133 1.215-2.942.189-4.173z" fill="#4d5d79"/><path d="m17.841 40.991c14.031-.181 25.435-11.466 26.126-25.63l-4.893 4.078c-1.987 1.655-4.489 2.561-7.074 2.561s-5.087-.906-7.073-2.561l-6.754-5.629c-1.231-1.025-3.04-.943-4.173.19s-1.215 2.942-.189 4.173l5.629 6.754c1.654 1.986 2.56 4.488 2.56 7.073s-.906 5.087-2.561 7.073z" fill="#717d94"/><circle cx="32" cy="32" fill="#ebf7fe" r="4"/><g><path d="m51 39c-1.555 0-3.05.306-4.467.877l-1.204-1.445c-1.502-1.802-2.329-4.086-2.329-6.432s.827-4.63 2.329-6.433l1.204-1.445c1.417.572 2.912.878 4.467.878 6.617 0 12-5.383 12-12s-5.383-12-12-12-12 5.383-12 12c0 1.555.306 3.05.877 4.467l-1.445 1.204c-1.802 1.502-4.086 2.329-6.432 2.329s-4.63-.827-6.433-2.329l-1.444-1.204c.572-1.419.877-2.917.877-4.467 0-6.617-5.383-12-12-12s-12 5.383-12 12 5.383 12 12 12c1.555 0 3.05-.306 4.467-.877l1.204 1.445c1.502 1.802 2.329 4.086 2.329 6.432s-.827 4.63-2.329 6.433l-1.204 1.445c-1.417-.572-2.912-.878-4.467-.878-6.617 0-12 5.383-12 12s5.383 12 12 12 12-5.383 12-12c0-1.554-.306-3.049-.878-4.467l1.445-1.204c1.803-1.502 4.087-2.329 6.433-2.329s4.63.827 6.433 2.329l1.445 1.204c-.572 1.417-.878 2.912-.878 4.467 0 6.617 5.383 12 12 12s12-5.383 12-12-5.383-12-12-12zm-10-26c0-5.514 4.486-10 10-10s10 4.486 10 10-4.486 10-10 10c-1.074 0-2.114-.177-3.111-.505l1.405-1.685c.557.121 1.127.19 1.706.19 4.411 0 8-3.589 8-8s-3.589-8-8-8-8 3.589-8 8c0 .575.083 1.139.203 1.696l-1.699 1.416c-.327-.998-.504-2.038-.504-3.112zm9.707.293c-1.509-1.508-3.882-1.616-5.52-.25l-.172.143c-.002-.063-.015-.123-.015-.186 0-3.309 2.691-6 6-6s6 2.691 6 6-2.691 6-6 6c-.062 0-.123-.014-.185-.016l.142-.171c1.366-1.639 1.258-4.012-.25-5.52zm-37.707 9.707c-5.514 0-10-4.486-10-10s4.486-10 10-10 10 4.486 10 10c0 1.073-.167 2.118-.496 3.118l-1.708-1.423c.121-.556.204-1.12.204-1.695 0-4.411-3.589-8-8-8s-8 3.589-8 8 3.589 8 8 8c.575 0 1.139-.083 1.696-.203l1.415 1.699c-.997.327-2.037.504-3.111.504zm.042-4.187.143.172c-.062.002-.122.015-.185.015-3.309 0-6-2.691-6-6s2.691-6 6-6 6 2.691 6 6c0 .063-.013.124-.015.186l-.172-.144c-1.638-1.366-4.011-1.259-5.52.25-1.508 1.509-1.616 3.882-.251 5.521zm9.958 32.187c0 5.514-4.486 10-10 10s-10-4.486-10-10 4.486-10 10-10c1.074 0 2.114.177 3.111.505l-1.415 1.698c-.556-.12-1.12-.203-1.696-.203-4.411 0-8 3.589-8 8s3.589 8 8 8 8-3.589 8-8c0-.576-.083-1.14-.203-1.696l1.698-1.415c.328.998.505 2.037.505 3.111zm-9.707-.293c1.509 1.509 3.881 1.616 5.52.25l.172-.143c.002.063.015.123.015.186 0 3.309-2.691 6-6 6s-6-2.691-6-6 2.691-6 6-6c.063 0 .123.013.186.015l-.143.172c-1.366 1.639-1.258 4.012.25 5.52zm18.707-9.707c-2.813 0-5.552.992-7.713 2.792l-6.754 5.629c-.838.698-2.054.644-2.826-.128s-.827-1.987-.128-2.826l5.629-6.754c1.8-2.161 2.792-4.9 2.792-7.713s-.992-5.552-2.792-7.713l-5.629-6.754c-.699-.839-.644-2.054.128-2.826s1.987-.827 2.826-.128l6.754 5.629c2.161 1.8 4.9 2.792 7.713 2.792s5.552-.992 7.713-2.792l6.754-5.629c.838-.699 2.053-.644 2.826.128.772.772.827 1.987.128 2.826l-5.629 6.754c-1.8 2.161-2.792 4.9-2.792 7.713s.992 5.552 2.792 7.713l5.629 6.754c.699.839.644 2.054-.128 2.826s-1.988.827-2.826.128l-6.754-5.629c-2.161-1.8-4.9-2.792-7.713-2.792zm13.015 9.814.172.143c.768.641 1.698.957 2.625.957 1.049 0 2.094-.406 2.896-1.207 1.508-1.508 1.616-3.881.25-5.52l-.143-.172c.062-.002.122-.015.185-.015 3.309 0 6 2.691 6 6s-2.691 6-6 6-6-2.691-6-6c0-.063.013-.123.015-.186zm5.985 10.186c-5.514 0-10-4.486-10-10 0-1.074.177-2.114.505-3.111l1.699 1.416c-.121.556-.204 1.12-.204 1.695 0 4.411 3.589 8 8 8s8-3.589 8-8-3.589-8-8-8c-.576 0-1.14.083-1.696.203l-1.415-1.698c.997-.328 2.037-.505 3.111-.505 5.514 0 10 4.486 10 10s-4.486 10-10 10z"/><path d="m32 27c-2.757 0-5 2.243-5 5s2.243 5 5 5 5-2.243 5-5-2.243-5-5-5zm0 8c-1.654 0-3-1.346-3-3s1.346-3 3-3 3 1.346 3 3-1.346 3-3 3z"/></g></g></svg>