<svg id="Capa_1" enable-background="new 0 0 512 512" height="512" viewBox="0 0 512 512" width="512" xmlns="http://www.w3.org/2000/svg"><g><g><path d="m217.26 206.571h77.48v86.54h-77.48z" fill="#3869ad"/></g><path d="m256 206.571h38.74v86.54h-38.74z" fill="#00457f"/><path d="m365.71 146.821-36.57 73.14h-146.28l-36.57-73.14z" fill="#bee3ed"/><path d="m365.71 146.821-36.57 73.14h-73.14v-73.14z" fill="#91c3d8"/><path d="m342.07 275.431h-172.14c-27.26 0-49.43 22.17-49.43 49.43v103.28c0 27.26 22.17 49.43 49.43 49.43h172.14c27.26 0 49.43-22.17 49.43-49.43v-103.28c0-27.26-22.17-49.43-49.43-49.43z" fill="#bee3ed"/><path d="m391.5 324.861v103.28c0 27.26-22.17 49.43-49.43 49.43h-86.07v-202.14h86.07c27.26 0 49.43 22.17 49.43 49.43z" fill="#91c3d8"/><path d="m361.5 324.861v103.28c0 10.72-8.72 19.43-19.43 19.43h-172.14c-10.71 0-19.43-8.71-19.43-19.43v-103.28c0-10.72 8.72-19.43 19.43-19.43h172.14c10.71 0 19.43 8.71 19.43 19.43z" fill="#3869ad"/><path d="m361.5 324.861v103.28c0 10.72-8.72 19.43-19.43 19.43h-86.07v-142.14h86.07c10.71 0 19.43 8.71 19.43 19.43z" fill="#00457f"/><circle cx="256" cy="376.501" fill="#28e7ef" r="36.57"/><path d="m292.57 376.501c0 20.2-16.37 36.57-36.57 36.57v-73.14c20.2 0 36.57 16.37 36.57 36.57z" fill="#1cace7"/><path d="m53.857 49.429h30v68.857h-30z" fill="#3869ad"/><path d="m0 34.429h137.714v30h-137.714z" fill="#e6f6ff"/><path d="m428.143 49.429h30v68.857h-30z" fill="#00457f"/><path d="m374.286 34.429h137.714v30h-137.714z" fill="#bee3ed"/><path d="m479.71 110.251v36.57c0 20.2-16.37 36.57-36.57 36.57-14.85 0-27.62-8.85-33.35-21.57h-307.58c-2.87 6.36-7.49 11.75-13.25 15.56-5.77 3.8-12.68 6.01-20.1 6.01-20.2 0-36.57-16.37-36.57-36.57v-36.57h73.14v21.57h84.93l29.07-58.14h73.14l29.07 58.14h84.93v-21.57z" fill="#e6f6ff"/><path d="m479.71 110.251v36.57c0 20.2-16.37 36.57-36.57 36.57-14.85 0-27.62-8.85-33.35-21.57h-153.79v-88.14h36.57l29.07 58.14h84.93v-21.57z" fill="#bee3ed"/></g></svg>