<svg id="Layer_1" enable-background="new 0 0 512 512" height="512" viewBox="0 0 512 512" width="512" xmlns="http://www.w3.org/2000/svg"><g><g clip-rule="evenodd" fill-rule="evenodd"><path d="m345.454 278.09c12.3 0 16.863-11.362 22.364-22.364l11.182-22.364h78.272c12.3 0 22.364-10.063 22.364-22.363v-22.364h-447.272v22.364c0 12.3 10.064 22.363 22.364 22.363h78.272l11.182 22.364c5.501 11.001 10.064 22.364 22.363 22.364z" fill="#6d91ac"/><path d="m144.182 188.635h223.636v-22.364c0-12.3-10.065-22.363-22.364-22.363h-178.909c-12.298 0-22.363 10.065-22.363 22.363z" fill="#fff"/><path d="m32.364 188.635h54.625l-.421-1.572-10.658-31.974c-1.945-5.834-5.032-11.182-11.182-11.182h-10-11.183c-6.149 0-11.182 5.032-11.182 11.182v33.546z" fill="#a7bdcd"/><path d="m479.636 188.635h-54.625l.421-1.572 10.658-31.974c1.944-5.834 5.032-11.182 11.181-11.182h10 11.182c6.149 0 11.182 5.032 11.182 11.182v33.546z" fill="#a7bdcd"/><circle cx="255.999" cy="318.091" fill="#66e0f7" r="40"/><path d="m215.999 318.091c0-22.091 17.909-40 40-40s40 17.909 40 40-17.909 40-40 40-40-17.908-40-40zm40-80c-29.611 0-55.464 16.087-69.297 39.999-6.807 11.767-10.702 25.429-10.702 40.001 0 44.183 35.817 80 80 80s80-35.817 80-80c0-14.572-3.896-28.234-10.703-40.001-13.833-23.911-39.687-39.999-69.298-39.999z" fill="#fff"/></g><g><path d="m502 100.36h-89.455c-5.523 0-10 4.478-10 10s4.477 10 10 10h34.803c-.046.389-.076.782-.076 1.184v12.363c-6.688 0-15.704 3.126-20.668 18.02l-8.903 26.708h-39.883v-.001-12.363c0-17.845-14.518-32.363-32.364-32.363h-79.454c0-5.522-4.481-10-10.004-10s-10 4.478-10 10h-79.451c-17.845 0-32.363 14.519-32.363 32.363v12.363.001h-39.884l-8.903-26.708c-4.963-14.894-13.979-18.02-20.668-18.02v-13.547h34.727c5.523 0 10-4.478 10-10s-4.477-10-10-10h-89.454c-5.523 0-10 4.478-10 10s4.477 10 10 10h34.727v13.547h-1.182c-11.68 0-21.182 9.502-21.182 21.182v33.546 22.364c0 17.845 14.518 32.363 32.363 32.363h72.092l8.418 16.837c.415.83.825 1.662 1.233 2.492 5.276 10.719 12.501 25.398 30.075 25.398h4.603c-3.329 9.388-5.148 19.486-5.148 30.001 0 49.626 40.374 90 90 90s90-40.374 90-90c0-10.515-1.819-20.613-5.148-30.001h4.603c17.574 0 24.8-14.681 30.076-25.399.408-.829.817-1.661 1.232-2.491l8.418-16.837h72.092c17.845 0 32.364-14.519 32.364-32.363v-22.364-33.546c0-11.68-9.502-21.182-21.182-21.182h-1.182v-12.363c0-.401-.03-.795-.076-1.184h34.804c5.523 0 10-4.478 10-10s-4.477-10-10-10zm-458.455 53.547h20.835c.353.429 1.123 1.589 2.041 4.344l6.795 20.384h-30.852v-23.546c0-.63.552-1.182 1.181-1.182zm281.729 154.185h-20.28c-4.645-22.795-24.847-40.001-48.994-40.001s-44.349 17.206-48.994 40.001h-20.28c4.868-33.877 34.072-60.001 69.274-60.001s64.406 26.124 69.274 60.001zm-39.274 9.999c0 16.542-13.458 30-30 30s-30-13.458-30-30 13.458-30 30-30 30 13.458 30 30zm-30 70c-35.202 0-64.405-26.123-69.274-59.999h20.281c4.646 22.794 24.847 39.999 48.994 39.999 24.146 0 44.347-17.205 48.993-39.999h20.281c-4.87 33.876-34.074 59.999-69.275 59.999zm213.636-177.092c0 6.817-5.546 12.363-12.364 12.363h-78.272c-3.788 0-7.25 2.14-8.944 5.528l-11.182 22.364c-.434.867-.862 1.737-1.289 2.604-5.341 10.853-7.711 14.231-12.131 14.231h-14.659c-16.165-24.102-43.657-39.999-74.795-39.999s-58.63 15.897-74.795 39.999h-14.66c-4.419 0-6.789-3.379-12.13-14.23-.427-.867-.855-1.737-1.289-2.604l-11.182-22.364c-1.694-3.389-5.157-5.528-8.944-5.528h-78.273c-6.817 0-12.363-5.546-12.363-12.363v-12.364h168.633c5.523 0 10-4.478 10-10s-4.477-10-10-10h-56.815v-.001-12.363c0-6.817 5.546-12.363 12.363-12.363h178.909c6.817 0 12.364 5.546 12.364 12.363v12.363.001h-56.821c-5.523 0-10 4.478-10 10s4.477 10 10 10h168.64v12.363zm0-55.91v23.546h-30.854l6.794-20.384c.919-2.756 1.688-3.915 2.042-4.344h20.836c.63 0 1.182.552 1.182 1.182z"/><path d="m206.502 84.409c13.222-13.221 30.801-20.502 49.498-20.502s36.276 7.281 49.498 20.502c1.953 1.952 4.512 2.929 7.071 2.929s5.119-.977 7.071-2.929c3.905-3.906 3.905-10.237 0-14.143-17-16.997-39.601-26.359-63.64-26.359-24.04 0-46.641 9.361-63.64 26.359-3.905 3.905-3.906 10.236 0 14.143 3.905 3.905 10.237 3.905 14.142 0z"/><path d="m220.645 98.551c-3.905 3.905-3.906 10.236 0 14.143 3.905 3.904 10.237 3.905 14.142 0 5.666-5.666 13.2-8.786 21.214-8.786s15.547 3.12 21.213 8.786c1.953 1.952 4.512 2.929 7.071 2.929s5.119-.977 7.071-2.929c3.905-3.906 3.905-10.237 0-14.143-9.444-9.443-22-14.644-35.355-14.644s-25.913 5.2-35.356 14.644z"/><path d="m246 318.092c0 5.522 4.481 10 10.004 10s10-4.478 10-10-4.477-10-10-10h-.008c-5.523 0-9.996 4.477-9.996 10z"/><path d="m256 428.093c-5.523 0-10 4.478-10 10v20c0 5.522 4.477 10 10 10s10-4.478 10-10v-20c0-5.523-4.478-10-10-10z"/><path d="m201 413.354c-4.782-2.76-10.898-1.122-13.66 3.66l-10 17.32c-2.762 4.783-1.123 10.898 3.66 13.66 1.575.909 3.294 1.342 4.991 1.342 3.456 0 6.817-1.794 8.669-5.002l10-17.32c2.761-4.784 1.123-10.899-3.66-13.66z"/><path d="m324.661 417.018c-2.762-4.783-8.877-6.422-13.661-3.66-4.783 2.762-6.421 8.878-3.66 13.66l10 17.32c1.853 3.208 5.213 5.002 8.669 5.002 1.696 0 3.417-.433 4.991-1.342 4.783-2.762 6.421-8.878 3.66-13.66z"/><path d="m256 178.635h-.008c-5.523 0-9.996 4.478-9.996 10s4.481 10 10.004 10 10-4.478 10-10-4.477-10-10-10z"/></g></g></svg>